<mxfile host="app.diagrams.net" agent="Mozilla/5.0 (Windows NT 10.0; Win64; x64) AppleWebKit/537.36 (KHTML, like Gecko) Chrome/141.0.0.0 Safari/537.36" version="28.2.5">
  <diagram name="Página-1" id="1r-2fcUsko5SR1NX8gbm">
    <mxGraphModel dx="1426" dy="777" grid="1" gridSize="10" guides="1" tooltips="1" connect="1" arrows="1" fold="1" page="1" pageScale="1" pageWidth="827" pageHeight="1169" math="0" shadow="0">
      <root>
        <mxCell id="0" />
        <mxCell id="1" parent="0" />
        <mxCell id="nRylTv0DqsdNGQieuV3L-15" value="" style="rounded=1;whiteSpace=wrap;html=1;opacity=30;" vertex="1" parent="1">
          <mxGeometry x="44" y="50" width="740" height="760" as="geometry" />
        </mxCell>
        <mxCell id="nRylTv0DqsdNGQieuV3L-1" value="" style="ellipse;html=1;shape=startState;fillColor=#000000;strokeColor=#ff0000;" vertex="1" parent="1">
          <mxGeometry x="150" y="90" width="30" height="30" as="geometry" />
        </mxCell>
        <mxCell id="nRylTv0DqsdNGQieuV3L-2" value="Cadastra candidatura" style="edgeStyle=orthogonalEdgeStyle;html=1;verticalAlign=bottom;endArrow=open;endSize=8;strokeColor=#ff0000;rounded=0;" edge="1" source="nRylTv0DqsdNGQieuV3L-1" parent="1">
          <mxGeometry relative="1" as="geometry">
            <mxPoint x="165" y="180" as="targetPoint" />
          </mxGeometry>
        </mxCell>
        <mxCell id="nRylTv0DqsdNGQieuV3L-3" value="Cadastrando candidatura" style="swimlane;fontStyle=1;align=center;verticalAlign=middle;childLayout=stackLayout;horizontal=1;startSize=30;horizontalStack=0;resizeParent=0;resizeLast=1;container=0;fontColor=#000000;collapsible=0;rounded=1;arcSize=30;strokeColor=#ff0000;fillColor=#ffffc0;swimlaneFillColor=#ffffc0;dropTarget=0;" vertex="1" parent="1">
          <mxGeometry x="85" y="180" width="160" height="60" as="geometry" />
        </mxCell>
        <mxCell id="nRylTv0DqsdNGQieuV3L-4" value="do/cadastraCandidatura()" style="text;html=1;strokeColor=none;fillColor=none;align=center;verticalAlign=middle;spacingLeft=4;spacingRight=4;whiteSpace=wrap;overflow=hidden;rotatable=0;fontColor=#000000;" vertex="1" parent="nRylTv0DqsdNGQieuV3L-3">
          <mxGeometry y="30" width="160" height="30" as="geometry" />
        </mxCell>
        <mxCell id="nRylTv0DqsdNGQieuV3L-8" value="[Se candidato tem as informações válidas]/confirma cadastro" style="edgeStyle=orthogonalEdgeStyle;rounded=0;orthogonalLoop=1;jettySize=auto;html=1;entryX=0.5;entryY=0;entryDx=0;entryDy=0;" edge="1" parent="1" target="nRylTv0DqsdNGQieuV3L-12">
          <mxGeometry relative="1" as="geometry">
            <mxPoint x="501" y="365" as="targetPoint" />
            <mxPoint x="191" y="365" as="sourcePoint" />
            <mxPoint as="offset" />
          </mxGeometry>
        </mxCell>
        <mxCell id="nRylTv0DqsdNGQieuV3L-11" value="[Se candidato tem as informações inválidas]/ candidato não cadastrado" style="edgeStyle=orthogonalEdgeStyle;rounded=0;orthogonalLoop=1;jettySize=auto;html=1;entryX=0;entryY=0.75;entryDx=0;entryDy=0;" edge="1" parent="1" source="nRylTv0DqsdNGQieuV3L-7" target="nRylTv0DqsdNGQieuV3L-12">
          <mxGeometry relative="1" as="geometry">
            <mxPoint x="165" y="580" as="targetPoint" />
            <Array as="points">
              <mxPoint x="165" y="550" />
            </Array>
          </mxGeometry>
        </mxCell>
        <mxCell id="nRylTv0DqsdNGQieuV3L-7" value="" style="ellipse;whiteSpace=wrap;html=1;aspect=fixed;" vertex="1" parent="1">
          <mxGeometry x="140" y="340" width="50" height="50" as="geometry" />
        </mxCell>
        <mxCell id="nRylTv0DqsdNGQieuV3L-6" style="edgeStyle=orthogonalEdgeStyle;rounded=0;orthogonalLoop=1;jettySize=auto;html=1;" edge="1" parent="1" source="nRylTv0DqsdNGQieuV3L-4" target="nRylTv0DqsdNGQieuV3L-7">
          <mxGeometry relative="1" as="geometry">
            <mxPoint x="165" y="310" as="targetPoint" />
          </mxGeometry>
        </mxCell>
        <mxCell id="nRylTv0DqsdNGQieuV3L-12" value="Candidato é dispensado" style="rounded=1;whiteSpace=wrap;html=1;arcSize=40;fontColor=#000000;fillColor=#ffffc0;strokeColor=#ff0000;" vertex="1" parent="1">
          <mxGeometry x="450" y="520" width="120" height="40" as="geometry" />
        </mxCell>
        <mxCell id="nRylTv0DqsdNGQieuV3L-13" value="" style="edgeStyle=orthogonalEdgeStyle;html=1;verticalAlign=bottom;endArrow=open;endSize=8;strokeColor=#ff0000;rounded=0;" edge="1" source="nRylTv0DqsdNGQieuV3L-12" parent="1">
          <mxGeometry relative="1" as="geometry">
            <mxPoint x="510" y="620" as="targetPoint" />
          </mxGeometry>
        </mxCell>
        <mxCell id="nRylTv0DqsdNGQieuV3L-14" value="" style="ellipse;html=1;shape=endState;fillColor=#000000;strokeColor=#ff0000;" vertex="1" parent="1">
          <mxGeometry x="495" y="620" width="30" height="30" as="geometry" />
        </mxCell>
        <mxCell id="nRylTv0DqsdNGQieuV3L-16" value="Classe candidato&lt;div&gt;&lt;br&gt;&lt;/div&gt;" style="text;html=1;align=center;verticalAlign=middle;resizable=0;points=[];autosize=1;strokeColor=none;fillColor=none;" vertex="1" parent="1">
          <mxGeometry x="355" y="15" width="120" height="40" as="geometry" />
        </mxCell>
      </root>
    </mxGraphModel>
  </diagram>
</mxfile>
